<svg xmlns="http://www.w3.org/2000/svg" width="1200" height="460" viewBox="0 0 1200 460"><defs><radialGradient id="hof"><stop offset="0" stop-opacity=".75"/><stop offset=".45" stop-opacity=".5"/><stop offset="1" stop-opacity="0"/></radialGradient></defs><path d="M42.8 0.5Q43.4 4.1 43.8 7.7" stroke="#000" stroke-width="1.4" fill="none" opacity="0.83"/><path d="M42.8 0.5Q29.4 10.2 13.1 12.7M1242.8 0.5Q1229.4 10.2 1213.1 12.7M373.3 0.6Q368.9 8.0 361.1 11.6M69.3 10.7Q57.0 5.5 43.8 7.7M361.1 11.6Q366.5 2.1 377.2 0.2" stroke="#000" stroke-width="1.4" fill="none" opacity="0.82"/><path d="M504.9 2.3Q519.1 5.3 533.2 1.6M777.6 2.2Q779.2 3.3 779.4 5.2" stroke="#000" stroke-width="1.4" fill="none" opacity="0.84"/><path d="M504.9 2.3Q514.1 16.5 529.5 23.5M1107.3 25.0Q1103.4 13.1 1100.6 0.8" stroke="#000" stroke-width="1.4" fill="none" opacity="0.79"/><path d="M981.4 317.7Q976.7 316.0 972.0 317.4M972.0 317.4Q976.0 312.4 978.5 306.6" stroke="#000" stroke-width="1.4" fill="none" opacity="0.16"/><path d="M981.4 317.7Q970.4 321.9 960.5 328.1" stroke="#000" stroke-width="1.4" fill="none" opacity="0.14"/><path d="M82.5 182.0Q73.4 199.3 54.5 204.1M82.5 182.0Q47.1 178.8 20.6 202.6M1282.5 182.0Q1247.1 178.8 1220.6 202.6M227.8 202.7Q217.4 171.5 235.2 143.8M227.8 202.7Q259.9 206.5 286.4 187.8" stroke="#000" stroke-width="1.4" fill="none" opacity="0.38"/><path d="M82.5 182.0Q55.1 178.3 28.7 186.8M1282.5 182.0Q1255.1 178.3 1228.7 186.8" stroke="#000" stroke-width="1.4" fill="none" opacity="0.41"/><path d="M686.6 36.5Q692.2 41.6 699.7 40.3" stroke="#000" stroke-width="1.4" fill="none" opacity="0.75"/><path d="M686.6 36.5Q686.0 44.2 682.3 50.9M686.6 36.5Q684.0 45.7 679.2 53.9" stroke="#000" stroke-width="1.4" fill="none" opacity="0.72"/><path d="M701.3 164.9Q695.4 153.1 683.5 147.4" stroke="#000" stroke-width="1.4" fill="none" opacity="0.46"/><path d="M884.6 341.5Q878.0 354.9 875.7 369.8" stroke="#000" stroke-width="1.4" fill="none" opacity="0.08"/><path d="M577.1 118.0Q570.6 114.9 563.9 117.4M577.1 118.0Q571.3 102.0 579.9 87.3M577.1 118.0Q581.4 96.5 597.1 81.2" stroke="#000" stroke-width="1.4" fill="none" opacity="0.57"/><path d="M761.0 14.4Q756.9 6.6 749.1 2.2" stroke="#000" stroke-width="1.4" fill="none" opacity="0.81"/><path d="M857.0 66.1Q861.1 78.1 865.1 90.1M597.1 81.2Q614.2 86.2 630.8 92.5" stroke="#000" stroke-width="1.4" fill="none" opacity="0.63"/><path d="M945.5 29.0Q946.8 27.5 946.5 25.5" stroke="#000" stroke-width="1.4" fill="none" opacity="0.78"/><path d="M27.3 219.9Q25.1 210.8 20.6 202.6M1227.3 219.9Q1225.1 210.8 1220.6 202.6M27.3 219.9Q20.1 203.0 28.7 186.8M1227.3 219.9Q1220.1 203.0 1228.7 186.8" stroke="#000" stroke-width="1.4" fill="none" opacity="0.35"/><path d="M972.6 194.7Q980.2 203.4 991.4 206.4M991.4 206.4Q1004.1 205.7 1016.8 204.5" stroke="#000" stroke-width="1.4" fill="none" opacity="0.37"/><path d="M972.6 194.7Q960.9 183.8 945.0 182.8" stroke="#000" stroke-width="1.4" fill="none" opacity="0.40"/><path d="M947.9 50.3Q944.2 46.7 939.3 45.3" stroke="#000" stroke-width="1.4" fill="none" opacity="0.73"/><path d="M486.4 193.8Q476.2 192.4 468.2 198.8" stroke="#000" stroke-width="1.4" fill="none" opacity="0.39"/><path d="M597.1 81.2Q588.5 84.2 579.9 87.3" stroke="#000" stroke-width="1.4" fill="none" opacity="0.64"/><path d="M597.1 81.2Q602.9 65.1 613.9 51.9" stroke="#000" stroke-width="1.4" fill="none" opacity="0.65"/><path d="M463.1 343.6Q486.4 324.1 515.4 315.2M463.1 343.6Q441.3 313.8 428.0 279.4" stroke="#000" stroke-width="1.4" fill="none" opacity="0.12"/><path d="M562.0 183.5Q574.7 213.7 575.4 246.4" stroke="#000" stroke-width="1.4" fill="none" opacity="0.29"/><path d="M428.0 279.4Q429.8 270.0 425.0 261.7M428.0 279.4Q418.3 256.1 399.6 239.3" stroke="#000" stroke-width="1.4" fill="none" opacity="0.23"/><path d="M838.8 184.9Q827.5 160.1 837.5 134.7" stroke="#000" stroke-width="1.4" fill="none" opacity="0.42"/><path d="M986.5 58.0Q988.2 60.3 988.2 63.2" stroke="#000" stroke-width="1.4" fill="none" opacity="0.69"/><path d="M579.1 360.0Q590.3 348.4 599.9 335.4" stroke="#000" stroke-width="1.4" fill="none" opacity="0.09"/><path d="M916.0 137.2Q904.3 129.8 902.3 116.2" stroke="#000" stroke-width="1.4" fill="none" opacity="0.52"/><path d="M1013.0 47.4L1033.5 62.5" stroke="#000" stroke-width="1" fill="none" opacity="0.66"/><path d="M1008.9 187.4L979.2 200.9" stroke="#000" stroke-width="1" fill="none" opacity="0.36"/><path d="M1015.7 19.4L1011.8 33.4L1013.0 47.4L1011.5 61.4L1009.9 75.4L1008.2 89.4L1012.3 103.4L1014.4 117.4L1013.1 131.4L1010.1 145.4L1005.3 159.4L1010.3 173.4L1008.9 187.4L1010.4 201.4L1013.8 215.4" stroke="#000" stroke-width="1.3" fill="none" opacity="0.53"/><path d="M701.7 33.0L706.4 47.0L706.3 61.0L700.7 75.0L695.1 89.0L700.2 103.0L695.6 117.0L698.1 131.0L701.3 145.0" stroke="#000" stroke-width="1.3" fill="none" opacity="0.59"/><path d="M778.6 326.4L801.6 345.7M781.6 340.4L767.3 347.1" stroke="#000" stroke-width="1" fill="none" opacity="0.11"/><path d="M779.7 368.4L795.4 380.9" stroke="#000" stroke-width="1" fill="none" opacity="0.06"/><path d="M765.2 18.4L763.6 32.4L767.1 46.4L772.9 60.4L766.9 74.4L766.0 88.4L771.9 102.4L770.0 116.4L771.0 130.4L767.9 144.4L767.8 158.4L764.3 172.4L762.5 186.4L762.1 200.4L763.7 214.4L759.8 228.4L762.0 242.4L760.4 256.4L766.2 270.4L772.1 284.4L773.6 298.4L779.6 312.4L778.6 326.4L781.6 340.4L785.4 354.4L779.7 368.4" stroke="#000" stroke-width="1.3" fill="none" opacity="0.38"/><circle cx="43.1" cy="2.5" r="1.8" fill="#000" opacity="0.83"/><circle cx="527.7" cy="1.7" r="1.8" fill="#000" opacity="0.84"/><circle cx="509.6" cy="6.4" r="1.8" fill="#000" opacity="0.79"/><circle cx="979.3" cy="309.7" r="1.8" fill="#000" opacity="0.16"/><circle cx="682.3" cy="50.7" r="1.8" fill="#000" opacity="0.72"/><circle cx="700.9" cy="164.5" r="1.8" fill="#000" opacity="0.46"/><circle cx="565.6" cy="117.5" r="1.8" fill="#000" opacity="0.57"/><circle cx="756.5" cy="9.9" r="1.8" fill="#000" opacity="0.81"/><circle cx="354.9" cy="326.6" r="1.8" fill="#000" opacity="0.10"/><circle cx="945.8" cy="28.0" r="1.8" fill="#000" opacity="0.78"/><circle cx="22.0" cy="206.2" r="1.8" fill="#000" opacity="0.35"/><circle cx="947.7" cy="184.0" r="1.8" fill="#000" opacity="0.40"/><circle cx="118.2" cy="6.8" r="1.8" fill="#000" opacity="0.83"/><circle cx="946.6" cy="49.6" r="1.8" fill="#000" opacity="0.73"/><circle cx="486.7" cy="204.9" r="1.8" fill="#000" opacity="0.36"/><circle cx="589.0" cy="84.1" r="1.8" fill="#000" opacity="0.64"/><circle cx="610.6" cy="85.8" r="1.8" fill="#000" opacity="0.63"/><circle cx="571.0" cy="225.5" r="1.8" fill="#000" opacity="0.29"/><circle cx="988.1" cy="62.8" r="1.8" fill="#000" opacity="0.69"/><circle cx="590.5" cy="346.6" r="1.8" fill="#000" opacity="0.09"/><circle cx="904.1" cy="119.0" r="1.8" fill="#000" opacity="0.52"/><circle cx="373.9" cy="2.5" r="1.8" fill="#000" opacity="0.82"/><circle cx="42.8" cy="0.5" r="19.3" fill="url(#hof)" opacity="0.28"/><circle cx="42.8" cy="0.5" r="3.5" fill="#000" opacity="1.00"/><circle cx="504.9" cy="2.3" r="13.1" fill="url(#hof)" opacity="0.28"/><circle cx="504.9" cy="2.3" r="1.6" fill="#000" opacity="1.00"/><circle cx="981.4" cy="317.7" r="15.5" fill="url(#hof)" opacity="0.05"/><circle cx="981.4" cy="317.7" r="2.3" fill="#000" opacity="0.59"/><circle cx="82.5" cy="182.0" r="15.5" fill="url(#hof)" opacity="0.14"/><circle cx="82.5" cy="182.0" r="2.3" fill="#000" opacity="0.90"/><circle cx="686.6" cy="36.5" r="13.7" fill="url(#hof)" opacity="0.25"/><circle cx="686.6" cy="36.5" r="1.8" fill="#000" opacity="1.00"/><circle cx="701.3" cy="164.9" r="16.6" fill="url(#hof)" opacity="0.15"/><circle cx="701.3" cy="164.9" r="2.7" fill="#000" opacity="0.94"/><circle cx="373.3" cy="0.6" r="23.3" fill="url(#hof)" opacity="0.28"/><circle cx="373.3" cy="0.6" r="4.8" fill="#000" opacity="1.00"/><circle cx="884.6" cy="341.5" r="15.6" fill="url(#hof)" opacity="0.04"/><circle cx="884.6" cy="341.5" r="2.4" fill="#000" opacity="0.54"/><circle cx="577.1" cy="118.0" r="20.4" fill="url(#hof)" opacity="0.19"/><circle cx="577.1" cy="118.0" r="3.9" fill="#000" opacity="1.00"/><circle cx="761.0" cy="14.4" r="21.8" fill="url(#hof)" opacity="0.27"/><circle cx="761.0" cy="14.4" r="4.3" fill="#000" opacity="1.00"/><circle cx="332.2" cy="353.7" r="11.5" fill="url(#hof)" opacity="0.03"/><circle cx="332.2" cy="353.7" r="1.1" fill="#000" opacity="0.52"/><circle cx="857.0" cy="66.1" r="14.7" fill="url(#hof)" opacity="0.23"/><circle cx="857.0" cy="66.1" r="2.1" fill="#000" opacity="1.00"/><circle cx="945.5" cy="29.0" r="17.5" fill="url(#hof)" opacity="0.26"/><circle cx="945.5" cy="29.0" r="3.0" fill="#000" opacity="1.00"/><circle cx="27.3" cy="219.9" r="12.7" fill="url(#hof)" opacity="0.11"/><circle cx="27.3" cy="219.9" r="1.5" fill="#000" opacity="0.81"/><circle cx="704.0" cy="92.4" r="14.5" fill="url(#hof)" opacity="0.21"/><circle cx="704.0" cy="92.4" r="2.0" fill="#000" opacity="1.00"/><circle cx="972.6" cy="194.7" r="14.1" fill="url(#hof)" opacity="0.13"/><circle cx="972.6" cy="194.7" r="1.9" fill="#000" opacity="0.87"/><circle cx="1107.3" cy="25.0" r="20.6" fill="url(#hof)" opacity="0.26"/><circle cx="1107.3" cy="25.0" r="3.9" fill="#000" opacity="1.00"/><circle cx="116.2" cy="7.9" r="14.4" fill="url(#hof)" opacity="0.27"/><circle cx="116.2" cy="7.9" r="2.0" fill="#000" opacity="1.00"/><circle cx="947.9" cy="50.3" r="14.7" fill="url(#hof)" opacity="0.24"/><circle cx="947.9" cy="50.3" r="2.1" fill="#000" opacity="1.00"/><circle cx="486.4" cy="193.8" r="16.3" fill="url(#hof)" opacity="0.13"/><circle cx="486.4" cy="193.8" r="2.6" fill="#000" opacity="0.87"/><circle cx="597.1" cy="81.2" r="18.9" fill="url(#hof)" opacity="0.21"/><circle cx="597.1" cy="81.2" r="3.4" fill="#000" opacity="1.00"/><circle cx="463.1" cy="343.6" r="15.9" fill="url(#hof)" opacity="0.04"/><circle cx="463.1" cy="343.6" r="2.5" fill="#000" opacity="0.54"/><circle cx="562.0" cy="183.5" r="16.5" fill="url(#hof)" opacity="0.14"/><circle cx="562.0" cy="183.5" r="2.6" fill="#000" opacity="0.90"/><circle cx="428.0" cy="279.4" r="12.1" fill="url(#hof)" opacity="0.08"/><circle cx="428.0" cy="279.4" r="1.3" fill="#000" opacity="0.67"/><circle cx="838.8" cy="184.9" r="16.7" fill="url(#hof)" opacity="0.14"/><circle cx="838.8" cy="184.9" r="2.7" fill="#000" opacity="0.89"/><circle cx="227.8" cy="202.7" r="15.4" fill="url(#hof)" opacity="0.13"/><circle cx="227.8" cy="202.7" r="2.3" fill="#000" opacity="0.85"/><circle cx="986.5" cy="58.0" r="16.9" fill="url(#hof)" opacity="0.23"/><circle cx="986.5" cy="58.0" r="2.8" fill="#000" opacity="1.00"/><circle cx="468.2" cy="198.8" r="14.5" fill="url(#hof)" opacity="0.13"/><circle cx="468.2" cy="198.8" r="2.0" fill="#000" opacity="0.86"/><circle cx="991.4" cy="206.4" r="14.8" fill="url(#hof)" opacity="0.12"/><circle cx="991.4" cy="206.4" r="2.1" fill="#000" opacity="0.84"/><circle cx="69.3" cy="10.7" r="18.8" fill="url(#hof)" opacity="0.27"/><circle cx="69.3" cy="10.7" r="3.4" fill="#000" opacity="1.00"/><circle cx="399.6" cy="239.3" r="14.9" fill="url(#hof)" opacity="0.10"/><circle cx="399.6" cy="239.3" r="2.2" fill="#000" opacity="0.76"/><circle cx="777.6" cy="2.2" r="22.4" fill="url(#hof)" opacity="0.28"/><circle cx="777.6" cy="2.2" r="4.5" fill="#000" opacity="1.00"/><circle cx="130.4" cy="0.1" r="16.8" fill="url(#hof)" opacity="0.28"/><circle cx="130.4" cy="0.1" r="2.7" fill="#000" opacity="1.00"/><circle cx="579.1" cy="360.0" r="13.1" fill="url(#hof)" opacity="0.03"/><circle cx="579.1" cy="360.0" r="1.6" fill="#000" opacity="0.51"/><circle cx="972.0" cy="317.4" r="14.9" fill="url(#hof)" opacity="0.05"/><circle cx="972.0" cy="317.4" r="2.2" fill="#000" opacity="0.59"/><circle cx="214.0" cy="104.6" r="19.5" fill="url(#hof)" opacity="0.20"/><circle cx="214.0" cy="104.6" r="3.6" fill="#000" opacity="1.00"/><circle cx="630.8" cy="92.5" r="20.9" fill="url(#hof)" opacity="0.21"/><circle cx="630.8" cy="92.5" r="4.0" fill="#000" opacity="1.00"/><circle cx="271.9" cy="1.2" r="23.2" fill="url(#hof)" opacity="0.28"/><circle cx="271.9" cy="1.2" r="4.8" fill="#000" opacity="1.00"/><circle cx="946.5" cy="25.5" r="19.4" fill="url(#hof)" opacity="0.26"/><circle cx="946.5" cy="25.5" r="3.6" fill="#000" opacity="1.00"/><circle cx="600.5" cy="32.8" r="18.5" fill="url(#hof)" opacity="0.25"/><circle cx="600.5" cy="32.8" r="3.3" fill="#000" opacity="1.00"/><circle cx="99.9" cy="8.2" r="17.9" fill="url(#hof)" opacity="0.27"/><circle cx="99.9" cy="8.2" r="3.1" fill="#000" opacity="1.00"/><circle cx="916.0" cy="137.2" r="13.8" fill="url(#hof)" opacity="0.17"/><circle cx="916.0" cy="137.2" r="1.8" fill="#000" opacity="1.00"/><circle cx="403.5" cy="45.9" r="15.3" fill="url(#hof)" opacity="0.24"/><circle cx="403.5" cy="45.9" r="2.3" fill="#000" opacity="1.00"/><circle cx="118.3" cy="313.5" r="11.8" fill="url(#hof)" opacity="0.06"/><circle cx="118.3" cy="313.5" r="1.2" fill="#000" opacity="0.60"/><circle cx="28.7" cy="186.8" r="12.3" fill="url(#hof)" opacity="0.14"/><circle cx="28.7" cy="186.8" r="1.3" fill="#000" opacity="0.89"/><circle cx="931.8" cy="218.1" r="13.1" fill="url(#hof)" opacity="0.12"/><circle cx="931.8" cy="218.1" r="1.6" fill="#000" opacity="0.81"/><circle cx="498.2" cy="219.6" r="13.2" fill="url(#hof)" opacity="0.11"/><circle cx="498.2" cy="219.6" r="1.6" fill="#000" opacity="0.81"/><circle cx="852.6" cy="23.5" r="15.6" fill="url(#hof)" opacity="0.26"/><circle cx="852.6" cy="23.5" r="2.4" fill="#000" opacity="1.00"/><circle cx="361.1" cy="11.6" r="19.7" fill="url(#hof)" opacity="0.27"/><circle cx="361.1" cy="11.6" r="3.7" fill="#000" opacity="1.00"/><circle cx="682.3" cy="50.9" r="15.4" fill="url(#hof)" opacity="0.24"/><circle cx="682.3" cy="50.9" r="2.3" fill="#000" opacity="1.00"/><circle cx="948.4" cy="0.1" r="23.2" fill="url(#hof)" opacity="0.28"/><circle cx="948.4" cy="0.1" r="4.8" fill="#000" opacity="1.00"/><circle cx="599.9" cy="335.4" r="11.3" fill="url(#hof)" opacity="0.04"/><circle cx="599.9" cy="335.4" r="1.0" fill="#000" opacity="0.55"/><circle cx="935.6" cy="6.0" r="14.2" fill="url(#hof)" opacity="0.28"/><circle cx="935.6" cy="6.0" r="1.9" fill="#000" opacity="1.00"/><circle cx="949.4" cy="224.8" r="13.4" fill="url(#hof)" opacity="0.11"/><circle cx="949.4" cy="224.8" r="1.7" fill="#000" opacity="0.79"/><circle cx="1013.8" cy="215.4" r="18.2" fill="url(#hof)" opacity="0.12"/><circle cx="1013.8" cy="215.4" r="3.2" fill="#000" opacity="0.82"/><circle cx="701.3" cy="145.0" r="19.4" fill="url(#hof)" opacity="0.17"/><circle cx="701.3" cy="145.0" r="3.6" fill="#000" opacity="0.99"/><circle cx="779.7" cy="368.4" r="15.8" fill="url(#hof)" opacity="0.03"/><circle cx="779.7" cy="368.4" r="2.5" fill="#000" opacity="0.49"/></svg>